<svg aria-hidden="true" style="position: absolute; width: 0; height: 0; overflow: hidden;" version="1.1" xmlns="http://www.w3.org/2000/svg" xmlns:xlink="http://www.w3.org/1999/xlink">
    <defs>
        <symbol id="icon-account" viewBox="0 0 32 32">
            <path fill="#e0e0e0" style="fill: var(--color1, #e0e0e0)" d="M4.48 7.040v17.92c0 1.414 1.146 2.56 2.56 2.56v0h17.92c1.408 0 2.56-1.152 2.56-2.56v-17.92c0-1.408-1.152-2.56-2.56-2.56h-17.92c-1.414 0-2.56 1.146-2.56 2.56v0zM19.84 12.16c0 2.125-1.715 3.84-3.84 3.84s-3.84-1.715-3.84-3.84 1.715-3.84 3.84-3.84 3.84 1.715 3.84 3.84zM8.32 22.4c0-2.56 5.12-3.968 7.68-3.968s7.68 1.408 7.68 3.968v1.28h-15.36v-1.28z"></path>
        </symbol>
        <symbol id="icon-arrow" viewBox="0 0 32 32">
            <path stroke-linejoin="miter" stroke-linecap="butt" stroke-miterlimit="4" stroke-width="1.6" d="M1.6 8.8l14.4 14.4 14.4-14.4"></path>
        </symbol>
        <symbol id="icon-calendar" viewBox="0 0 32 32">
            <path fill="#4a56e2" style="fill: var(--color2, #4a56e2)" d="M12 14.667h-2.667v2.667h2.667v-2.667zM17.333 14.667h-2.667v2.667h2.667v-2.667zM22.667 14.667h-2.667v2.667h2.667v-2.667zM25.333 5.333h-1.333v-2.667h-2.667v2.667h-10.667v-2.667h-2.667v2.667h-1.333c-1.48 0-2.653 1.2-2.653 2.667l-0.013 18.667c0 1.473 1.194 2.667 2.667 2.667v0h18.667c1.467 0 2.667-1.2 2.667-2.667v-18.667c0-1.467-1.2-2.667-2.667-2.667zM25.333 26.667h-18.667v-14.667h18.667v14.667z"></path>
        </symbol>
        <symbol id="icon-close" viewBox="0 0 32 32">
            <path stroke-linejoin="miter" stroke-linecap="butt" stroke-miterlimit="4" stroke-width="1.7778" d="M1.778 1.778l28.444 28.444M1.778 30.222l28.444-28.444"></path>
        </symbol>
        <symbol id="icon-currency" viewBox="0 0 32 32">
            <path fill="#fff" style="fill: var(--color3, #fff)" d="M8.828 3.862h14.345c1.828 0 3.31 1.482 3.31 3.31v14.345c0 1.828-1.482 3.31-3.31 3.31h-14.345c-1.828 0-3.31-1.482-3.31-3.31v-14.345c0-1.828 1.482-3.31 3.31-3.31z"></path>
            <path fill="#4a56e2" style="fill: var(--color2, #4a56e2)" d="M8.828 3.862c-1.828 0-3.31 1.482-3.31 3.31v0 14.345c0 1.828 1.482 3.31 3.31 3.31v0h14.345c1.828 0 3.31-1.482 3.31-3.31v0-14.345c0-1.828-1.482-3.31-3.31-3.31v0h-14.345zM14.208 12.468c0 0.652 0.502 1.070 2.060 1.476s3.226 1.071 3.226 3.021c0 1.407-1.064 2.183-2.403 2.437v1.476h-2.060v-1.49c-1.318-0.281-2.444-1.126-2.526-2.629h1.51c0.076 0.81 0.632 1.442 2.046 1.442 1.517 0 1.854-0.756 1.854-1.229 0-0.638-0.344-1.242-2.060-1.654-1.916-0.46-3.227-1.25-3.227-2.836 0-1.324 1.071-2.189 2.403-2.478v-1.483h2.060v1.503c1.434 0.35 2.156 1.434 2.204 2.616h-1.517c-0.041-0.858-0.494-1.442-1.716-1.442-1.16 0-1.854 0.522-1.854 1.27z"></path>
        </symbol>
        <symbol id="icon-email" viewBox="0 0 32 32">
            <path fill="#e0e0e0" style="fill: var(--color1, #e0e0e0)" d="M26.24 5.76h-20.48c-1.408 0-2.547 1.152-2.547 2.56l-0.013 15.36c0 1.408 1.152 2.56 2.56 2.56h20.48c1.408 0 2.56-1.152 2.56-2.56v-15.36c0-1.408-1.152-2.56-2.56-2.56zM26.24 10.88l-10.24 6.4-10.24-6.4v-2.56l10.24 6.4 10.24-6.4v2.56z"></path>
        </symbol>
        <symbol id="icon-exit" viewBox="0 0 32 32">
            <path fill="#bdbdbd" style="fill: var(--color4, #bdbdbd)" d="M18.805 16.086h1.729v3.461c-0.001 1.432-1.162 2.593-2.594 2.594h-10.422c-1.432-0.001-2.593-1.162-2.594-2.594v-16.953c0.001-1.432 1.162-2.593 2.594-2.594h10.422c1.432 0.001 2.593 1.162 2.594 2.594v3.461h-1.728v-3.458c0-0 0-0.001 0-0.001 0-0.478-0.387-0.865-0.865-0.865 0 0 0 0 0 0h-10.423c-0.478 0.001-0.865 0.388-0.865 0.865v16.953c0 0.476 0.389 0.864 0.865 0.864h10.422c0 0 0 0 0 0 0.477 0 0.865-0.387 0.865-0.864v-3.462zM22.999 6.993l-1.223 1.223 1.99 1.989h-11.188v1.73h11.188l-1.99 1.989 1.223 1.223 4.078-4.078-4.078-4.078z"></path>
        </symbol>
        <symbol id="icon-home" viewBox="0 0 32 32">
            <path fill="#fff" style="fill: var(--color3, #fff)" d="M10.105 5.895h11.789c0.93 0 1.684 0.754 1.684 1.684v11.789c0 0.93-0.754 1.684-1.684 1.684h-11.789c-0.93 0-1.684-0.754-1.684-1.684v-11.789c0-0.93 0.754-1.684 1.684-1.684z"></path>
            <path fill="#4a56e2" style="fill: var(--color2, #4a56e2)" d="M10.105 5.895c-0.93 0-1.684 0.754-1.684 1.684v0 11.789c0 0.93 0.754 1.684 1.684 1.684v0h11.789c0.93 0 1.684-0.754 1.684-1.684v0-11.789c0-0.93-0.754-1.684-1.684-1.684v0h-11.789zM14.989 14.415v3.269h-2.526v-4.36h-1.516l5.053-4.904 5.053 4.904h-1.516v4.36h-2.526v-3.269h-2.021z"></path>
        </symbol>
        <symbol id="icon-minus" viewBox="0 0 32 32">
            <path fill="none" stroke="#fff" style="stroke: var(--color3, #fff)" stroke-linejoin="miter" stroke-linecap="butt" stroke-miterlimit="4" stroke-width="3.2" d="M0 16h32"></path>
        </symbol>
        <symbol id="icon-password" viewBox="0 0 32 32">
            <path fill="#e0e0e0" style="fill: var(--color1, #e0e0e0)" d="M23.68 10.88h-1.28v-2.56c0-3.533-2.867-6.4-6.4-6.4s-6.4 2.867-6.4 6.4v2.56h-1.28c-1.408 0-2.56 1.152-2.56 2.56v12.8c0 1.408 1.152 2.56 2.56 2.56h15.36c1.408 0 2.56-1.152 2.56-2.56v-12.8c0-1.408-1.152-2.56-2.56-2.56zM16 22.4c-1.408 0-2.56-1.152-2.56-2.56s1.152-2.56 2.56-2.56 2.56 1.152 2.56 2.56-1.152 2.56-2.56 2.56zM19.968 10.88h-7.936v-2.56c0-2.189 1.779-3.968 3.968-3.968s3.968 1.779 3.968 3.968v2.56z"></path>
        </symbol>
        <symbol id="icon-plus" viewBox="0 0 32 32">
            <path fill="none" stroke="#fff" style="stroke: var(--color3, #fff)" stroke-linejoin="miter" stroke-linecap="butt" stroke-miterlimit="4" stroke-width="3.2" d="M16 0v32M0 16h32"></path>
        </symbol>
        <symbol id="icon-statistic" viewBox="0 0 32 32">
            <path fill="#6e78e8" style="fill: var(--color5, #6e78e8)" d="M6.667 4h18.667c1.473 0 2.667 1.194 2.667 2.667v18.667c0 1.473-1.194 2.667-2.667 2.667h-18.667c-1.473 0-2.667-1.194-2.667-2.667v-18.667c0-1.473 1.194-2.667 2.667-2.667zM23.636 14.223c0.933 0 1.697-0.8 1.697-1.779 0-0.977-0.764-1.777-1.697-1.777s-1.697 0.8-1.697 1.777c0 0.16 0.017 0.312 0.060 0.453l-3.012 3.165c-0.125-0.040-0.27-0.063-0.419-0.063-0.007 0-0.014 0-0.022 0h0.001c-0.155 0-0.307 0.017-0.443 0.063l-2.163-2.267c0.041-0.143 0.059-0.303 0.059-0.463 0-0.977-0.764-1.777-1.697-1.777s-1.696 0.8-1.696 1.777c0 0.16 0.016 0.32 0.059 0.463l-3.869 4.044c-0.123-0.040-0.265-0.063-0.412-0.063-0.007 0-0.014 0-0.021 0h0.001c-0.933 0-1.697 0.8-1.697 1.779 0 0.977 0.764 1.777 1.697 1.777s1.696-0.8 1.696-1.777c0-0.16-0.016-0.312-0.059-0.453l3.86-4.053c0.136 0.044 0.289 0.061 0.441 0.061 0.153 0 0.307-0.017 0.441-0.061l2.164 2.267c-0.038 0.132-0.060 0.283-0.060 0.44 0 0.008 0 0.015 0 0.022v-0.001c0 0.979 0.764 1.779 1.697 1.779s1.697-0.8 1.697-1.779c0-0.16-0.017-0.32-0.060-0.461l3.021-3.156c0.136 0.044 0.28 0.063 0.432 0.063z"></path>
        </symbol>
        <symbol id="icon-wallet" viewBox="0 0 32 32">
            <path fill="#24cca7" style="fill: var(--color6, #24cca7)" d="M3.755 7.619l16.211-4.538-0.858-1.779c-0.562-1.156-1.931-1.634-3.059-1.058l-14.513 7.375h2.219zM24.814 3.048c-0.209 0-0.411 0.032-0.601 0.091l0.014-0.004-15.012 4.483h18.43l-0.692-2.778c-0.266-1.083-1.163-1.792-2.14-1.792z"></path>
            <path fill="#4a56e2" style="fill: var(--color2, #4a56e2)" d="M28.36 8.573h-26.56c-0.001 0-0.002 0-0.003 0-0.822 0-1.515 0.551-1.73 1.303l-0.003 0.013c-0.039 0.14-0.063 0.3-0.064 0.466v19.863c0.005 0.985 0.804 1.782 1.79 1.782 0.002 0 0.004 0 0.007 0h26.56c0.991 0 1.796-0.798 1.796-1.782v-4.974h-10.662c-1.686 0-3.054-1.358-3.054-3.030v-3.966c0-0.82 0.33-1.565 0.866-2.11 0.551-0.565 1.321-0.916 2.172-0.916 0.005 0 0.009 0 0.014 0h10.665v-4.867c-0.001-0.985-0.8-1.782-1.785-1.782-0.003 0-0.006 0-0.008 0h0z"></path>
            <path fill="#4a56e2" style="fill: var(--color2, #4a56e2)" d="M31.414 16.926c-0.318-0.29-0.743-0.467-1.209-0.467-0.001 0-0.001 0-0.002 0h-10.712c-0.992 0-1.797 0.798-1.797 1.782v3.969c0.005 0.985 0.804 1.782 1.79 1.782 0.002 0 0.005 0 0.007 0h10.712c0.205 0 0.399-0.036 0.582-0.096 0.237-0.079 0.449-0.208 0.629-0.371 0.359-0.325 0.586-0.795 0.586-1.316v-3.968c0-0.52-0.226-0.991-0.586-1.315zM23.242 20.581c0 0.492-0.402 0.891-0.898 0.891h-0.596c-0.496 0-0.898-0.4-0.898-0.891v-0.592c0-0.286 0.133-0.538 0.345-0.698 0.151-0.119 0.344-0.191 0.553-0.193h0.596c0.496 0 0.898 0.399 0.898 0.891v0.592z"></path>
        </symbol>
        <symbol id="icon-logo">
            <path fill="#24CCA7" d="M3.52 7.143 18.72 2.889l-.805-1.668C17.387.137 16.103-.31 15.045.23L1.44 7.143h2.08ZM23.262 2.857c-.183 0-.366.027-.549.082l-3.472 1.039L8.64 7.143h17.279l-.65-2.605c-.249-1.016-1.09-1.68-2.006-1.68Z"/>
            <path fill="#4A56E2" d="M26.587 8.037H1.688A1.686 1.686 0 0 0 .06 9.27C.024 9.41 0 9.558 0 9.708V28.33c0 .922.755 1.67 1.684 1.67h24.9c.93 0 1.684-.748 1.684-1.67v-4.663h-9.995c-1.58 0-2.864-1.273-2.864-2.84V17.107c0-.768.31-1.467.812-1.978a2.843 2.843 0 0 1 2.049-.86h9.998V9.709a1.674 1.674 0 0 0-1.68-1.67Z"/>
            <path fill="#4A56E2" d="M29.45 15.868a1.686 1.686 0 0 0-1.134-.438H18.273c-.93 0-1.685.75-1.685 1.672v3.72c0 .922.755 1.671 1.685 1.671H28.316c.192 0 .373-.034.545-.09.223-.074.421-.194.59-.348A1.66 1.66 0 0 0 30 20.822v-3.72c0-.488-.212-.93-.55-1.234Zm-7.66 3.426a.84.84 0 0 1-.842.836h-.56a.84.84 0 0 1-.842-.836v-.555c0-.267.125-.504.324-.655a.855.855 0 0 1 .518-.18H20.948a.84.84 0 0 1 .842.835v.555Z"/>
            <path fill="#000" d="M68.13 7.455 64.013 23.25h-4.658l-2.52-10.395-2.61 10.395h-4.657L45.563 7.455h4.117l2.273 11.498 2.812-11.498h4.23l2.7 11.498L63.99 7.455h4.14ZM69.295 16.95c0-1.29.24-2.422.72-3.397.495-.976 1.162-1.726 2.002-2.25.84-.526 1.778-.788 2.813-.788.885 0 1.657.18 2.317.54.675.36 1.193.832 1.553 1.418v-1.778h3.847V23.25H78.7v-1.777c-.375.585-.9 1.057-1.576 1.417-.66.36-1.432.54-2.317.54-1.02 0-1.95-.262-2.79-.788-.84-.54-1.507-1.297-2.002-2.272-.48-.99-.72-2.13-.72-3.42Zm9.405.023c0-.96-.27-1.718-.81-2.273a2.56 2.56 0 0 0-1.935-.832c-.765 0-1.418.277-1.958.832-.525.54-.787 1.29-.787 2.25s.262 1.725.787 2.295c.54.555 1.193.832 1.958.832a2.56 2.56 0 0 0 1.934-.832c.54-.555.81-1.313.81-2.273ZM89.178 6.6v16.65h-3.847V6.6h3.847ZM95.814 6.6v16.65h-3.848V6.6h3.848ZM110.437 16.77c0 .36-.022.735-.067 1.125h-8.708c.06.78.308 1.38.743 1.8.45.405.997.607 1.642.607.96 0 1.628-.404 2.003-1.215h4.095a5.548 5.548 0 0 1-1.148 2.228 5.584 5.584 0 0 1-2.047 1.552c-.825.375-1.748.563-2.768.563-1.23 0-2.325-.262-3.285-.788a5.601 5.601 0 0 1-2.25-2.25c-.54-.974-.81-2.114-.81-3.42 0-1.305.263-2.445.787-3.42a5.6 5.6 0 0 1 2.251-2.25c.96-.524 2.062-.787 3.307-.787 1.215 0 2.295.255 3.24.765a5.42 5.42 0 0 1 2.205 2.183c.54.945.81 2.047.81 3.307Zm-3.937-1.012c0-.66-.225-1.185-.675-1.575-.45-.39-1.013-.585-1.688-.585-.645 0-1.192.187-1.642.562-.435.375-.705.908-.81 1.598h4.815ZM119.464 19.988v3.262h-1.957c-1.395 0-2.483-.337-3.263-1.012-.78-.69-1.17-1.808-1.17-3.353V13.89h-1.53v-3.195h1.53v-3.06h3.848v3.06h2.52v3.195h-2.52v5.04c0 .375.09.645.27.81.18.165.48.248.9.248h1.372Z"/>
        </symbol>
    </defs>
</svg>